<mxfile host="app.diagrams.net" modified="2021-05-24T12:51:27.352Z" agent="5.0 (Windows NT 10.0; Win64; x64) AppleWebKit/537.36 (KHTML, like Gecko) Chrome/90.0.4430.212 Safari/537.36" etag="5DIMMCF2cwhfpHf3sH-5" version="14.7.0" type="github">
  <diagram id="Wd_oJn38wZUzVgSo89xS" name="Page-1">
    <mxGraphModel dx="1836" dy="896" grid="1" gridSize="10" guides="1" tooltips="1" connect="1" arrows="1" fold="1" page="1" pageScale="1" pageWidth="2339" pageHeight="3300" math="0" shadow="0">
      <root>
        <mxCell id="0" />
        <mxCell id="1" parent="0" />
        <mxCell id="pzFhs3liKInP-grsurP8-2" value="&lt;font style=&quot;font-size: 14px&quot;&gt;use-case&amp;nbsp;&lt;br&gt;Калькулятор&lt;/font&gt;" style="shape=umlFrame;whiteSpace=wrap;html=1;width=100;height=60;perimeterSpacing=0;shadow=0;" vertex="1" parent="1">
          <mxGeometry x="409" y="350" width="1600" height="880" as="geometry" />
        </mxCell>
        <mxCell id="pzFhs3liKInP-grsurP8-4" value="&lt;font style=&quot;font-size: 14px&quot;&gt;Пользователь&lt;/font&gt;" style="shape=umlActor;verticalLabelPosition=bottom;verticalAlign=top;html=1;" vertex="1" parent="1">
          <mxGeometry x="329" y="707.5" width="60" height="140" as="geometry" />
        </mxCell>
        <mxCell id="pzFhs3liKInP-grsurP8-47" style="edgeStyle=none;rounded=0;jumpStyle=none;jumpSize=21;orthogonalLoop=1;jettySize=auto;html=1;exitX=1;exitY=1;exitDx=0;exitDy=0;entryX=0;entryY=0.5;entryDx=0;entryDy=0;dashed=1;startSize=19;endSize=20;strokeWidth=2;" edge="1" parent="1" source="pzFhs3liKInP-grsurP8-7" target="pzFhs3liKInP-grsurP8-27">
          <mxGeometry relative="1" as="geometry" />
        </mxCell>
        <mxCell id="pzFhs3liKInP-grsurP8-48" style="edgeStyle=none;rounded=0;jumpStyle=none;jumpSize=21;orthogonalLoop=1;jettySize=auto;html=1;exitX=1;exitY=0;exitDx=0;exitDy=0;entryX=0;entryY=0.5;entryDx=0;entryDy=0;dashed=1;startSize=19;endSize=20;strokeWidth=2;" edge="1" parent="1" source="pzFhs3liKInP-grsurP8-7" target="pzFhs3liKInP-grsurP8-26">
          <mxGeometry relative="1" as="geometry" />
        </mxCell>
        <mxCell id="pzFhs3liKInP-grsurP8-7" value="&lt;font style=&quot;font-size: 14px&quot;&gt;Ввод данных через графический интерфейс&lt;/font&gt;" style="ellipse;whiteSpace=wrap;html=1;" vertex="1" parent="1">
          <mxGeometry x="489" y="710" width="200" height="135" as="geometry" />
        </mxCell>
        <mxCell id="pzFhs3liKInP-grsurP8-14" value="" style="endArrow=none;html=1;entryX=0;entryY=0.5;entryDx=0;entryDy=0;exitX=0.5;exitY=0.5;exitDx=0;exitDy=0;exitPerimeter=0;" edge="1" parent="1" source="pzFhs3liKInP-grsurP8-4" target="pzFhs3liKInP-grsurP8-7">
          <mxGeometry width="50" height="50" relative="1" as="geometry">
            <mxPoint x="969" y="730" as="sourcePoint" />
            <mxPoint x="1019" y="680" as="targetPoint" />
          </mxGeometry>
        </mxCell>
        <mxCell id="pzFhs3liKInP-grsurP8-41" style="edgeStyle=none;rounded=0;jumpStyle=none;jumpSize=21;orthogonalLoop=1;jettySize=auto;html=1;exitX=1;exitY=0.5;exitDx=0;exitDy=0;entryX=0;entryY=0;entryDx=0;entryDy=0;dashed=1;startSize=19;endSize=20;strokeWidth=2;" edge="1" parent="1" source="pzFhs3liKInP-grsurP8-26" target="pzFhs3liKInP-grsurP8-35">
          <mxGeometry relative="1" as="geometry" />
        </mxCell>
        <mxCell id="pzFhs3liKInP-grsurP8-26" value="&lt;font style=&quot;font-size: 14px&quot;&gt;Ввод операнда&lt;/font&gt;" style="ellipse;whiteSpace=wrap;html=1;" vertex="1" parent="1">
          <mxGeometry x="729" y="580" width="200" height="135" as="geometry" />
        </mxCell>
        <mxCell id="pzFhs3liKInP-grsurP8-46" style="edgeStyle=none;rounded=0;jumpStyle=none;jumpSize=21;orthogonalLoop=1;jettySize=auto;html=1;exitX=1;exitY=1;exitDx=0;exitDy=0;entryX=0.3;entryY=0.988;entryDx=0;entryDy=0;entryPerimeter=0;dashed=1;startSize=19;endSize=20;strokeWidth=2;" edge="1" parent="1" source="pzFhs3liKInP-grsurP8-27" target="pzFhs3liKInP-grsurP8-33">
          <mxGeometry relative="1" as="geometry">
            <Array as="points">
              <mxPoint x="1389" y="990" />
            </Array>
          </mxGeometry>
        </mxCell>
        <mxCell id="pzFhs3liKInP-grsurP8-51" style="edgeStyle=none;rounded=0;jumpStyle=none;jumpSize=21;orthogonalLoop=1;jettySize=auto;html=1;exitX=1;exitY=0;exitDx=0;exitDy=0;entryX=0;entryY=1;entryDx=0;entryDy=0;dashed=1;startSize=19;endSize=20;strokeWidth=2;" edge="1" parent="1" source="pzFhs3liKInP-grsurP8-27" target="pzFhs3liKInP-grsurP8-35">
          <mxGeometry relative="1" as="geometry" />
        </mxCell>
        <mxCell id="pzFhs3liKInP-grsurP8-27" value="&lt;font style=&quot;font-size: 14px&quot;&gt;Ввод тригонометрической функции&lt;/font&gt;" style="ellipse;whiteSpace=wrap;html=1;" vertex="1" parent="1">
          <mxGeometry x="729" y="840" width="200" height="135" as="geometry" />
        </mxCell>
        <mxCell id="pzFhs3liKInP-grsurP8-29" value="&quot;Include&quot;" style="text;html=1;strokeColor=none;fillColor=none;align=center;verticalAlign=middle;whiteSpace=wrap;rounded=0;shadow=0;" vertex="1" parent="1">
          <mxGeometry x="639" y="670" width="40" height="20" as="geometry" />
        </mxCell>
        <mxCell id="pzFhs3liKInP-grsurP8-31" value="&quot;Include&quot;" style="text;html=1;strokeColor=none;fillColor=none;align=center;verticalAlign=middle;whiteSpace=wrap;rounded=0;shadow=0;" vertex="1" parent="1">
          <mxGeometry x="639" y="870" width="40" height="20" as="geometry" />
        </mxCell>
        <mxCell id="pzFhs3liKInP-grsurP8-52" style="edgeStyle=none;rounded=0;jumpStyle=none;jumpSize=21;orthogonalLoop=1;jettySize=auto;html=1;exitX=1;exitY=0;exitDx=0;exitDy=0;entryX=0;entryY=0.5;entryDx=0;entryDy=0;dashed=1;startSize=19;endSize=20;strokeWidth=2;" edge="1" parent="1" source="pzFhs3liKInP-grsurP8-33" target="pzFhs3liKInP-grsurP8-49">
          <mxGeometry relative="1" as="geometry" />
        </mxCell>
        <mxCell id="pzFhs3liKInP-grsurP8-53" style="edgeStyle=none;rounded=0;jumpStyle=none;jumpSize=21;orthogonalLoop=1;jettySize=auto;html=1;exitX=1;exitY=1;exitDx=0;exitDy=0;entryX=0;entryY=0.5;entryDx=0;entryDy=0;dashed=1;startSize=19;endSize=20;strokeWidth=2;" edge="1" parent="1" source="pzFhs3liKInP-grsurP8-33" target="pzFhs3liKInP-grsurP8-50">
          <mxGeometry relative="1" as="geometry" />
        </mxCell>
        <mxCell id="pzFhs3liKInP-grsurP8-33" value="&lt;font style=&quot;font-size: 14px&quot;&gt;Получение результата&lt;/font&gt;" style="ellipse;whiteSpace=wrap;html=1;" vertex="1" parent="1">
          <mxGeometry x="1479" y="710" width="200" height="135" as="geometry" />
        </mxCell>
        <mxCell id="pzFhs3liKInP-grsurP8-42" style="edgeStyle=none;rounded=0;jumpStyle=none;jumpSize=21;orthogonalLoop=1;jettySize=auto;html=1;exitX=1;exitY=0;exitDx=0;exitDy=0;entryX=0;entryY=0.5;entryDx=0;entryDy=0;dashed=1;startSize=19;endSize=20;strokeWidth=2;" edge="1" parent="1" source="pzFhs3liKInP-grsurP8-35" target="pzFhs3liKInP-grsurP8-36">
          <mxGeometry relative="1" as="geometry" />
        </mxCell>
        <mxCell id="pzFhs3liKInP-grsurP8-43" style="edgeStyle=none;rounded=0;jumpStyle=none;jumpSize=21;orthogonalLoop=1;jettySize=auto;html=1;exitX=1;exitY=1;exitDx=0;exitDy=0;entryX=0;entryY=0.5;entryDx=0;entryDy=0;dashed=1;startSize=19;endSize=20;strokeWidth=2;" edge="1" parent="1" source="pzFhs3liKInP-grsurP8-35" target="pzFhs3liKInP-grsurP8-37">
          <mxGeometry relative="1" as="geometry" />
        </mxCell>
        <mxCell id="pzFhs3liKInP-grsurP8-35" value="&lt;font style=&quot;font-size: 14px&quot;&gt;Выбор арифметического действия, возведение в степень или извлечение квадратного корня&lt;/font&gt;" style="ellipse;whiteSpace=wrap;html=1;" vertex="1" parent="1">
          <mxGeometry x="969" y="710" width="210" height="135" as="geometry" />
        </mxCell>
        <mxCell id="pzFhs3liKInP-grsurP8-44" style="edgeStyle=none;rounded=0;jumpStyle=none;jumpSize=21;orthogonalLoop=1;jettySize=auto;html=1;exitX=1;exitY=0.5;exitDx=0;exitDy=0;entryX=0;entryY=0;entryDx=0;entryDy=0;dashed=1;startSize=19;endSize=20;strokeWidth=2;" edge="1" parent="1" source="pzFhs3liKInP-grsurP8-36" target="pzFhs3liKInP-grsurP8-33">
          <mxGeometry relative="1" as="geometry" />
        </mxCell>
        <mxCell id="pzFhs3liKInP-grsurP8-36" value="&lt;font style=&quot;font-size: 14px&quot;&gt;Ввод операнда&lt;/font&gt;" style="ellipse;whiteSpace=wrap;html=1;" vertex="1" parent="1">
          <mxGeometry x="1229" y="580" width="200" height="135" as="geometry" />
        </mxCell>
        <mxCell id="pzFhs3liKInP-grsurP8-45" style="edgeStyle=none;rounded=0;jumpStyle=none;jumpSize=21;orthogonalLoop=1;jettySize=auto;html=1;exitX=1;exitY=0.5;exitDx=0;exitDy=0;entryX=0;entryY=1;entryDx=0;entryDy=0;dashed=1;startSize=19;endSize=20;strokeWidth=2;" edge="1" parent="1" source="pzFhs3liKInP-grsurP8-37" target="pzFhs3liKInP-grsurP8-33">
          <mxGeometry relative="1" as="geometry" />
        </mxCell>
        <mxCell id="pzFhs3liKInP-grsurP8-37" value="&lt;font style=&quot;font-size: 14px&quot;&gt;Ввод тригонометрической функции&lt;/font&gt;" style="ellipse;whiteSpace=wrap;html=1;" vertex="1" parent="1">
          <mxGeometry x="1229" y="840" width="200" height="135" as="geometry" />
        </mxCell>
        <mxCell id="pzFhs3liKInP-grsurP8-49" value="&lt;font style=&quot;font-size: 14px&quot;&gt;Продолжение работы с полученным результатом&lt;/font&gt;" style="ellipse;whiteSpace=wrap;html=1;" vertex="1" parent="1">
          <mxGeometry x="1729" y="580" width="200" height="135" as="geometry" />
        </mxCell>
        <mxCell id="pzFhs3liKInP-grsurP8-50" value="&lt;font style=&quot;font-size: 14px&quot;&gt;Сброс&lt;/font&gt;" style="ellipse;whiteSpace=wrap;html=1;" vertex="1" parent="1">
          <mxGeometry x="1729" y="840" width="200" height="135" as="geometry" />
        </mxCell>
        <mxCell id="pzFhs3liKInP-grsurP8-54" value="&quot;Include&quot;" style="text;html=1;strokeColor=none;fillColor=none;align=center;verticalAlign=middle;whiteSpace=wrap;rounded=0;shadow=0;" vertex="1" parent="1">
          <mxGeometry x="959" y="660" width="40" height="20" as="geometry" />
        </mxCell>
        <mxCell id="pzFhs3liKInP-grsurP8-55" value="&quot;Include&quot;" style="text;html=1;strokeColor=none;fillColor=none;align=center;verticalAlign=middle;whiteSpace=wrap;rounded=0;shadow=0;" vertex="1" parent="1">
          <mxGeometry x="939" y="850" width="40" height="20" as="geometry" />
        </mxCell>
        <mxCell id="pzFhs3liKInP-grsurP8-58" value="&quot;Include&quot;" style="text;html=1;strokeColor=none;fillColor=none;align=center;verticalAlign=middle;whiteSpace=wrap;rounded=0;shadow=0;" vertex="1" parent="1">
          <mxGeometry x="1139" y="670" width="40" height="20" as="geometry" />
        </mxCell>
        <mxCell id="pzFhs3liKInP-grsurP8-59" value="&quot;Include&quot;" style="text;html=1;strokeColor=none;fillColor=none;align=center;verticalAlign=middle;whiteSpace=wrap;rounded=0;shadow=0;" vertex="1" parent="1">
          <mxGeometry x="1139" y="860" width="40" height="20" as="geometry" />
        </mxCell>
        <mxCell id="pzFhs3liKInP-grsurP8-60" value="&quot;Include&quot;" style="text;html=1;strokeColor=none;fillColor=none;align=center;verticalAlign=middle;whiteSpace=wrap;rounded=0;shadow=0;" vertex="1" parent="1">
          <mxGeometry x="1469" y="660" width="40" height="20" as="geometry" />
        </mxCell>
        <mxCell id="pzFhs3liKInP-grsurP8-61" value="&quot;Include&quot;" style="text;html=1;strokeColor=none;fillColor=none;align=center;verticalAlign=middle;whiteSpace=wrap;rounded=0;shadow=0;" vertex="1" parent="1">
          <mxGeometry x="1429" y="840" width="40" height="20" as="geometry" />
        </mxCell>
        <mxCell id="pzFhs3liKInP-grsurP8-62" value="&quot;Include&quot;" style="text;html=1;strokeColor=none;fillColor=none;align=center;verticalAlign=middle;whiteSpace=wrap;rounded=0;shadow=0;" vertex="1" parent="1">
          <mxGeometry x="1159" y="990" width="40" height="20" as="geometry" />
        </mxCell>
        <mxCell id="pzFhs3liKInP-grsurP8-63" value="&quot;Include&quot;" style="text;html=1;strokeColor=none;fillColor=none;align=center;verticalAlign=middle;whiteSpace=wrap;rounded=0;shadow=0;" vertex="1" parent="1">
          <mxGeometry x="1639" y="660" width="40" height="20" as="geometry" />
        </mxCell>
        <mxCell id="pzFhs3liKInP-grsurP8-64" value="&quot;Include&quot;" style="text;html=1;strokeColor=none;fillColor=none;align=center;verticalAlign=middle;whiteSpace=wrap;rounded=0;shadow=0;" vertex="1" parent="1">
          <mxGeometry x="1639" y="860" width="40" height="20" as="geometry" />
        </mxCell>
      </root>
    </mxGraphModel>
  </diagram>
</mxfile>
